Coordinates
version=1
nRows=13
nColumns=30
inDegrees=yes

Units are S.I. units (second, meters, Newtons, ...)
Angles are in degrees.

endheader
time	floatyaw	floatroll	floatpitch	floatx	floaty	floatz	pro_sup_l	deviation_l	flexion_l	cmc_flexion_l	cmc_abduction_l	mp_flexion_l	ip_flexion_l	2mcp_flexion_l	2mcp_abduction_l	2pm_flexion_l	2md_flexion_l	3mcp_flexion_l	3mcp_abduction_l	3pm_flexion_l	3md_flexion_l	4mcp_flexion_l	4mcp_abduction_l	4pm_flexion_l	4md_flexion_l	5mcp_flexion_l	5mcp_abduction_l	5pm_flexion_l	5md_flexion_l
0.005000	-160.147433	-5.066637	-73.570646	-0.067022	-0.134203	-0.107080	113.891150	34.334615	-11.794468	12.675463	12.270495	-34.189618	-55.246525	45.824055	15.671555	59.790897	65.469170	47.187888	6.126582	77.086730	55.877930	47.071041	-5.980329	86.047030	67.516407	45.380224	-14.757111	88.908644	69.135827
0.015000	-160.147433	-5.066637	-73.570646	-0.067286	-0.132464	-0.106948	113.080124	34.112606	-12.175386	12.738479	12.409070	-34.447999	-55.643346	46.431062	15.726747	59.939878	65.796094	47.876945	6.132557	77.153615	56.001093	47.658144	-5.989460	86.266479	67.801318	45.894724	-14.758427	89.267495	69.400645
0.025000	-160.147433	-5.066637	-73.570646	-0.067549	-0.130386	-0.106899	112.362162	33.885135	-12.659415	12.828423	12.839829	-34.675832	-56.059912	47.163996	15.787847	59.948286	66.024601	48.658728	6.131800	77.122651	56.062530	48.273066	-5.997780	86.441650	68.080246	46.396509	-14.750765	89.649402	69.713845
0.035000	-160.147433	-5.066637	-73.570646	-0.067807	-0.128134	-0.106937	111.769764	33.680400	-13.154228	12.936823	13.574769	-34.851907	-56.469683	48.033523	15.851640	59.740147	66.108190	49.507745	6.123948	76.937936	56.054215	48.900630	-6.006794	86.498856	68.332980	46.859164	-14.732894	89.985579	70.049474
0.045000	-160.147433	-5.066637	-73.570646	-0.068051	-0.125987	-0.107050	111.284928	33.506399	-13.558481	13.051103	14.551889	-34.966831	-56.845691	48.988572	15.911172	59.327609	66.025717	50.369441	6.110950	76.600950	55.977871	49.516140	-6.017355	86.409208	68.538842	47.272911	-14.705724	90.228778	70.365555
0.055000	-160.147433	-5.066637	-73.570646	-0.068269	-0.124261	-0.107205	110.827995	33.346199	-13.789148	13.156250	15.639645	-35.026434	-57.165949	49.915980	15.958255	58.819528	65.803998	51.165541	6.096453	76.179230	55.855193	50.078522	-6.029039	86.206862	68.689759	47.631339	-14.672059	90.371707	70.622567
0.065000	-160.147433	-5.066637	-73.570646	-0.068439	-0.123197	-0.107361	110.292900	33.168274	-13.802496	13.236784	16.668669	-35.045690	-57.412498	50.667154	15.986549	58.380818	65.517021	51.805540	6.084517	75.783747	55.726528	50.527600	-6.040104	85.975606	68.793496	47.913502	-14.636277	90.442373	70.797323
0.075000	-160.147433	-5.066637	-73.570646	-0.068539	-0.122860	-0.107480	109.611265	32.947886	-13.602311	13.278810	17.482822	-35.037240	-57.568278	51.109037	15.993919	58.158812	65.258037	52.208507	6.078164	75.521289	55.635049	50.796257	-6.048250	85.807723	68.864229	48.079548	-14.603692	90.479093	70.885243
0.085000	-160.147433	-5.066637	-73.570646	-0.068551	-0.123112	-0.107545	108.799258	32.685780	-13.234320	13.273067	17.988868	-35.002964	-57.618219	51.178718	15.983115	58.216333	65.099741	52.331524	6.078267	75.445973	55.605203	50.837344	-6.051755	85.758232	68.908720	48.088451	-14.579155	90.502419	70.893787
0.095000	-160.147433	-5.066637	-73.570646	-0.068475	-0.123681	-0.107556	107.951415	32.411279	-12.769124	13.218929	18.180693	-34.934196	-57.555897	50.910913	15.960603	58.509166	65.066322	52.189613	6.083237	75.537746	55.630222	50.649469	-6.050261	85.821496	68.920032	47.925854	-14.565165	90.502581	70.835235
0.105000	-160.147433	-5.066637	-73.570646	-0.068332	-0.124279	-0.107521	107.186178	32.167624	-12.278713	13.127007	18.126814	-34.819445	-57.390422	50.420074	15.934004	58.917290	65.131731	51.852058	6.089805	75.719041	55.677575	50.282523	-6.044770	85.941923	68.883556	47.619492	-14.560678	90.448910	70.723786
0.115000	-160.147433	-5.066637	-73.570646	-0.068152	-0.124710	-0.107448	106.582073	31.989347	-11.814822	13.017580	17.930880	-34.653706	-57.146992	49.847683	15.909147	59.306427	65.240030	51.414793	6.094596	75.896521	55.708283	49.817790	-6.036940	86.048647	68.789682	47.229764	-14.561597	90.313063	70.575337
0.125000	-160.147433	-5.066637	-73.570646	-0.067968	-0.124912	-0.107339	106.144689	31.885606	-11.398065	12.914326	17.688076	-34.443605	-56.859618	49.306386	15.888031	59.583383	65.332152	50.964537	6.095653	76.002456	55.697018	49.335425	-6.028203	86.091960	68.642962	46.823053	-14.562767	90.090824	70.406100
